<?xml version="1.0" encoding="UTF-8"?><svg id="a" xmlns="http://www.w3.org/2000/svg" viewBox="0 0 526 471.5"><defs><style>.b{fill:#9c2b85;stroke-width:0px;}</style></defs><path class="b" d="M205.79,110v.12h53.5v-.06c-17.83,0-35.67-.06-53.5-.06ZM139.44,228.86c-.12-1.33-.42-2.06-2.15-1.38-8.15,3.2-18.5,12.5-18.31,25.37.18,11.68,7.09,21.63,18.11,25.64,1.79.65,2.26.18,2.36-1.41.57-8.44,1.77-16.82,2.01-25.15-.21-7.82-1.33-15.43-2.02-23.07ZM176.25,252.83h-.03c0-19.39-.03-38.77.04-58.15,0-1.68-.17-2.39-2.12-2.32-4.48.15-8.96-.05-13.44.03-8.23.13-12.47,4.32-12.84,12.58-.05,1.26-.03,2.53-.03,3.8v86.48c-.01,2.64.14,5.25.53,7.86.78,5.17,3.87,8.69,8.97,9.79,5.1,1.11,10.29.17,15.42.57,2.69.22,3.6-.42,3.58-3.38-.16-19.09-.08-38.18-.08-57.26ZM215.58,210.82c-.01-2.63.06-5.27-.04-7.89-.28-7.85-3.63-11.08-11.43-11.09-3.89,0-7.79.01-11.68.01-5.51,0-6.93,1.23-7.67,6.75-.14,1.05-.1,2.14-.1,3.21,0,16.84,0,33.68,0,50.53v31.25c0,7.11-.05,14.22.03,21.33.06,5.89,2.49,8.26,8.31,8.32,3.31.04,6.63.07,9.93.02,8.59-.11,12.71-4.26,12.71-12.77-.01-29.89-.04-59.78-.05-89.67ZM205.79,110v.12h53.5v-.06c-17.83,0-35.67-.06-53.5-.06ZM306.28,243.48c.06-2.12-.46-2.82-2.69-2.86-27.84-.46-55.68-.88-83.52-.61-1.97.02-2.17.77-2.15,2.4.09,5.84.16,11.69,0,17.52-.06,2.35.41,3.14,2.98,3.07,13.72-.38,27.44-.54,47.15-.88,8.03.08,22.05-.34,36.06.3,1.66.08,2.19-.3,2.17-2-.1-5.65-.14-11.3,0-16.94ZM328.54,353.77c-3.45.34-6.53,1.27-9.39,3.09-2.73,1.74-5.36,3.63-8.13,5.3-15.89,9.56-33.15,13.19-51.62,12.71-18.41-.49-35.16-5.47-50.26-16.03-2.54-1.78-5.1-3.55-8.12-4.53-5.51-1.78-10.23-.46-12.85,3.72-2.56,4.07-1.65,9.18,2.31,13.19,2.72,2.75,6.2,4.4,9.31,6.58,18.46,12.93,39.25,18.32,59.6,19.16,8.24-.06,14.56-.74,20.86-1.55,18.63-2.42,34.78-10.85,50.28-20.85,3.26-2.11,5.37-5.07,6.62-8.63,2.62-7.45-2.74-12.72-8.61-12.16ZM339.09,252.76h-.11c0-17.52.02-35.05-.01-52.57,0-5.62-2.6-8.24-8.15-8.32-3.7-.06-7.4-.05-11.1-.02-7.72.08-11.13,3.56-11.14,11.34-.02,26.58-.05,53.16-.06,79.74-.01,6.23-.04,12.46.07,18.69.14,7.32,4.2,11.31,11.41,11.34,4.08.01,8.17,0,12.26-.03,3.66-.02,5.22-1.22,6.4-4.72.51-1.53.42-3.08.42-4.62.02-16.94.01-33.88.01-50.83ZM376.39,210.26c0-1.94.06-3.89-.01-5.84-.24-6.28-4.43-12.5-12.11-12.07-4.56.25-9.15.2-13.72.01-2.35-.1-2.86.67-2.85,2.91.09,19.17.05,38.35.05,57.52s-.01,38.55.03,57.82c0,1.13-.83,2.88,1.66,2.8,4.96-.16,9.94.07,14.88-.29,7.64-.57,11.44-4.64,12.02-12.33.09-1.26.05-2.53.05-3.8.01-28.91,0-57.82,0-86.73ZM404.91,251.47c-.98-11.22-7.61-18.53-17.83-22.81-1.49-.62-2.34-.84-2.45,1.42-.55,10.76-2.48,21.45-1.24,32.28.67,5.87,1.13,11.76,1.7,17.8,2.5-.58,4.47-1.6,6.33-2.78,9.51-6.02,14.48-14.64,13.49-25.91ZM404.91,251.47c-.98-11.22-7.61-18.53-17.83-22.81-1.49-.62-2.34-.84-2.45,1.42-.55,10.76-2.48,21.45-1.24,32.28.67,5.87,1.13,11.76,1.7,17.8,2.5-.58,4.47-1.6,6.33-2.78,9.51-6.02,14.48-14.64,13.49-25.91ZM376.38,204.42c-.24-6.28-4.43-12.5-12.11-12.07-4.56.25-9.15.2-13.72.01-2.35-.1-2.86.67-2.85,2.91.09,19.17.05,38.35.05,57.52s-.01,38.55.03,57.82c0,1.13-.83,2.88,1.66,2.8,4.96-.16,9.94.07,14.88-.29,7.64-.57,11.44-4.64,12.02-12.33.09-1.26.05-2.53.05-3.8.01-28.91,0-57.82,0-86.73,0-1.94.06-3.89-.01-5.84ZM338.98,252.76c0-17.52.02-35.05-.01-52.57,0-5.62-2.6-8.24-8.15-8.32-3.7-.06-7.4-.05-11.1-.02-7.72.08-11.13,3.56-11.14,11.34-.02,26.58-.05,53.16-.06,79.74-.01,6.23-.04,12.46.07,18.69.14,7.32,4.2,11.31,11.41,11.34,4.08.01,8.17,0,12.26-.03,3.66-.02,5.22-1.22,6.4-4.72.51-1.53.42-3.08.42-4.62.02-16.94.01-33.88.01-50.83h-.11ZM328.54,353.77c-3.45.34-6.53,1.27-9.39,3.09-2.73,1.74-5.36,3.63-8.13,5.3-15.89,9.56-33.15,13.19-51.62,12.71-18.41-.49-35.16-5.47-50.26-16.03-2.54-1.78-5.1-3.55-8.12-4.53-5.51-1.78-10.23-.46-12.85,3.72-2.56,4.07-1.65,9.18,2.31,13.19,2.72,2.75,6.2,4.4,9.31,6.58,18.46,12.93,39.25,18.32,59.6,19.16,8.24-.06,14.56-.74,20.86-1.55,18.63-2.42,34.78-10.85,50.28-20.85,3.26-2.11,5.37-5.07,6.62-8.63,2.62-7.45-2.74-12.72-8.61-12.16ZM220.07,240.01c-1.97.02-2.17.77-2.15,2.4.09,5.84.16,11.69,0,17.52-.06,2.35.41,3.14,2.98,3.07,13.72-.38,27.44-.54,47.15-.88,8.03.08,22.05-.34,36.06.3,1.66.08,2.19-.3,2.17-2-.1-5.65-.14-11.3,0-16.94.06-2.12-.46-2.82-2.69-2.86-27.84-.46-55.68-.88-83.52-.61ZM259.29,110.06c-17.83,0-35.67-.06-53.5-.06v.12h53.5v-.06ZM202.92,313.26c8.59-.11,12.71-4.26,12.71-12.77-.01-29.89-.04-59.78-.05-89.67-.01-2.63.06-5.27-.04-7.89-.28-7.85-3.63-11.08-11.43-11.09-3.89,0-7.79.01-11.68.01-5.51,0-6.93,1.23-7.67,6.75-.14,1.05-.1,2.14-.1,3.21,0,16.84,0,33.68,0,50.53v31.25c0,7.11-.05,14.22.03,21.33.06,5.89,2.49,8.26,8.31,8.32,3.31.04,6.63.07,9.93.02ZM176.25,252.83h-.03c0-19.39-.03-38.77.04-58.15,0-1.68-.17-2.39-2.12-2.32-4.48.15-8.96-.05-13.44.03-8.23.13-12.47,4.32-12.84,12.58-.05,1.26-.03,2.53-.03,3.8v86.48c-.01,2.64.14,5.25.53,7.86.78,5.17,3.87,8.69,8.97,9.79,5.1,1.11,10.29.17,15.42.57,2.69.22,3.6-.42,3.58-3.38-.16-19.09-.08-38.18-.08-57.26ZM137.29,227.48c-8.15,3.2-18.5,12.5-18.31,25.37.18,11.68,7.09,21.63,18.11,25.64,1.79.65,2.26.18,2.36-1.41.57-8.44,1.77-16.82,2.01-25.15-.21-7.82-1.33-15.43-2.02-23.07-.12-1.33-.42-2.06-2.15-1.38ZM139.44,228.86c-.12-1.33-.42-2.06-2.15-1.38-8.15,3.2-18.5,12.5-18.31,25.37.18,11.68,7.09,21.63,18.11,25.64,1.79.65,2.26.18,2.36-1.41.57-8.44,1.77-16.82,2.01-25.15-.21-7.82-1.33-15.43-2.02-23.07ZM176.25,252.83h-.03c0-19.39-.03-38.77.04-58.15,0-1.68-.17-2.39-2.12-2.32-4.48.15-8.96-.05-13.44.03-8.23.13-12.47,4.32-12.84,12.58-.05,1.26-.03,2.53-.03,3.8v86.48c-.01,2.64.14,5.25.53,7.86.78,5.17,3.87,8.69,8.97,9.79,5.1,1.11,10.29.17,15.42.57,2.69.22,3.6-.42,3.58-3.38-.16-19.09-.08-38.18-.08-57.26ZM215.58,210.82c-.01-2.63.06-5.27-.04-7.89-.28-7.85-3.63-11.08-11.43-11.09-3.89,0-7.79.01-11.68.01-5.51,0-6.93,1.23-7.67,6.75-.14,1.05-.1,2.14-.1,3.21,0,16.84,0,33.68,0,50.53v31.25c0,7.11-.05,14.22.03,21.33.06,5.89,2.49,8.26,8.31,8.32,3.31.04,6.63.07,9.93.02,8.59-.11,12.71-4.26,12.71-12.77-.01-29.89-.04-59.78-.05-89.67ZM205.79,110v.12h53.5v-.06c-17.83,0-35.67-.06-53.5-.06ZM306.28,243.48c.06-2.12-.46-2.82-2.69-2.86-27.84-.46-55.68-.88-83.52-.61-1.97.02-2.17.77-2.15,2.4.09,5.84.16,11.69,0,17.52-.06,2.35.41,3.14,2.98,3.07,13.72-.38,27.44-.54,47.15-.88,8.03.08,22.05-.34,36.06.3,1.66.08,2.19-.3,2.17-2-.1-5.65-.14-11.3,0-16.94ZM328.54,353.77c-3.45.34-6.53,1.27-9.39,3.09-2.73,1.74-5.36,3.63-8.13,5.3-15.89,9.56-33.15,13.19-51.62,12.71-18.41-.49-35.16-5.47-50.26-16.03-2.54-1.78-5.1-3.55-8.12-4.53-5.51-1.78-10.23-.46-12.85,3.72-2.56,4.07-1.65,9.18,2.31,13.19,2.72,2.75,6.2,4.4,9.31,6.58,18.46,12.93,39.25,18.32,59.6,19.16,8.24-.06,14.56-.74,20.86-1.55,18.63-2.42,34.78-10.85,50.28-20.85,3.26-2.11,5.37-5.07,6.62-8.63,2.62-7.45-2.74-12.72-8.61-12.16ZM339.09,252.76h-.11c0-17.52.02-35.05-.01-52.57,0-5.62-2.6-8.24-8.15-8.32-3.7-.06-7.4-.05-11.1-.02-7.72.08-11.13,3.56-11.14,11.34-.02,26.58-.05,53.16-.06,79.74-.01,6.23-.04,12.46.07,18.69.14,7.32,4.2,11.31,11.41,11.34,4.08.01,8.17,0,12.26-.03,3.66-.02,5.22-1.22,6.4-4.72.51-1.53.42-3.08.42-4.62.02-16.94.01-33.88.01-50.83ZM376.39,210.26c0-1.94.06-3.89-.01-5.84-.24-6.28-4.43-12.5-12.11-12.07-4.56.25-9.15.2-13.72.01-2.35-.1-2.86.67-2.85,2.91.09,19.17.05,38.35.05,57.52s-.01,38.55.03,57.82c0,1.13-.83,2.88,1.66,2.8,4.96-.16,9.94.07,14.88-.29,7.64-.57,11.44-4.64,12.02-12.33.09-1.26.05-2.53.05-3.8.01-28.91,0-57.82,0-86.73ZM404.91,251.47c-.98-11.22-7.61-18.53-17.83-22.81-1.49-.62-2.34-.84-2.45,1.42-.55,10.76-2.48,21.45-1.24,32.28.67,5.87,1.13,11.76,1.7,17.8,2.5-.58,4.47-1.6,6.33-2.78,9.51-6.02,14.48-14.64,13.49-25.91ZM215.58,210.82c-.01-2.63.06-5.27-.04-7.89-.28-7.85-3.63-11.08-11.43-11.09-3.89,0-7.79.01-11.68.01-5.51,0-6.93,1.23-7.67,6.75-.14,1.05-.1,2.14-.1,3.21,0,16.84,0,33.68,0,50.53v31.25c0,7.11-.05,14.22.03,21.33.06,5.89,2.49,8.26,8.31,8.32,3.31.04,6.63.07,9.93.02,8.59-.11,12.71-4.26,12.71-12.77-.01-29.89-.04-59.78-.05-89.67ZM339.09,252.76h-.11c0-17.52.02-35.05-.01-52.57,0-5.62-2.6-8.24-8.15-8.32-3.7-.06-7.4-.05-11.1-.02-7.72.08-11.13,3.56-11.14,11.34-.02,26.58-.05,53.16-.06,79.74-.01,6.23-.04,12.46.07,18.69.14,7.32,4.2,11.31,11.41,11.34,4.08.01,8.17,0,12.26-.03,3.66-.02,5.22-1.22,6.4-4.72.51-1.53.42-3.08.42-4.62.02-16.94.01-33.88.01-50.83ZM376.39,210.26c0-1.94.06-3.89-.01-5.84-.24-6.28-4.43-12.5-12.11-12.07-4.56.25-9.15.2-13.72.01-2.35-.1-2.86.67-2.85,2.91.09,19.17.05,38.35.05,57.52s-.01,38.55.03,57.82c0,1.13-.83,2.88,1.66,2.8,4.96-.16,9.94.07,14.88-.29,7.64-.57,11.44-4.64,12.02-12.33.09-1.26.05-2.53.05-3.8.01-28.91,0-57.82,0-86.73ZM176.25,252.83h-.03c0-19.39-.03-38.77.04-58.15,0-1.68-.17-2.39-2.12-2.32-4.48.15-8.96-.05-13.44.03-8.23.13-12.47,4.32-12.84,12.58-.05,1.26-.03,2.53-.03,3.8v86.48c-.01,2.64.14,5.25.53,7.86.78,5.17,3.87,8.69,8.97,9.79,5.1,1.11,10.29.17,15.42.57,2.69.22,3.6-.42,3.58-3.38-.16-19.09-.08-38.18-.08-57.26ZM328.54,353.77c-3.45.34-6.53,1.27-9.39,3.09-2.73,1.74-5.36,3.63-8.13,5.3-15.89,9.56-33.15,13.19-51.62,12.71-18.41-.49-35.16-5.47-50.26-16.03-2.54-1.78-5.1-3.55-8.12-4.53-5.51-1.78-10.23-.46-12.85,3.72-2.56,4.07-1.65,9.18,2.31,13.19,2.72,2.75,6.2,4.4,9.31,6.58,18.46,12.93,39.25,18.32,59.6,19.16,8.24-.06,14.56-.74,20.86-1.55,18.63-2.42,34.78-10.85,50.28-20.85,3.26-2.11,5.37-5.07,6.62-8.63,2.62-7.45-2.74-12.72-8.61-12.16ZM306.28,243.48c.06-2.12-.46-2.82-2.69-2.86-27.84-.46-55.68-.88-83.52-.61-1.97.02-2.17.77-2.15,2.4.09,5.84.16,11.69,0,17.52-.06,2.35.41,3.14,2.98,3.07,13.72-.38,27.44-.54,47.15-.88,8.03.08,22.05-.34,36.06.3,1.66.08,2.19-.3,2.17-2-.1-5.65-.14-11.3,0-16.94ZM139.44,228.86c-.12-1.33-.42-2.06-2.15-1.38-8.15,3.2-18.5,12.5-18.31,25.37.18,11.68,7.09,21.63,18.11,25.64,1.79.65,2.26.18,2.36-1.41.57-8.44,1.77-16.82,2.01-25.15-.21-7.82-1.33-15.43-2.02-23.07ZM404.91,251.47c-.98-11.22-7.61-18.53-17.83-22.81-1.49-.62-2.34-.84-2.45,1.42-.55,10.76-2.48,21.45-1.24,32.28.67,5.87,1.13,11.76,1.7,17.8,2.5-.58,4.47-1.6,6.33-2.78,9.51-6.02,14.48-14.64,13.49-25.91ZM520.32,245.14c-3.18-24.99-16.27-42.4-39.75-51.75-2.16-.86-3.01-2.18-3.33-4.2-.86-5.47-2.24-10.82-3.95-16.07-16.54-50.81-65.25-93.92-126.89-93.64-9.24.04-18.48.06-27.67.06v-.06h-28.21l-15.95-13.92,44.16-26.48V3l-64.32,41.62L205.79,5.12v36.32l29.03,22.43c5.2,4,9.78,7.32,13.73,9.97,2.98,2.01,5.91,3.82,8.82,5.44-27.59-.72-54.19-.17-80.78.3-10.15.18-20.27,1.31-30.17,3.78-19.85,4.93-37.37,14.39-52.86,27.61-23.59,20.13-38.9,45.36-45.66,75.65-.78,3.48-2.11,5.4-5.46,6.86-16.79,7.3-28.96,19.34-34.78,36.89-5.75,17.37-5.63,35.04.02,52.43,5.33,16.38,15.65,28.86,31.77,35.45,5.78,2.36,8.01,5.44,9.39,11.5,8.92,39.2,30.5,70.63,62.15,94.72,38.07,28.98,82.09,42.53,129.41,46.12,18.95,1.43,37.88.89,56.8-1.21,15.74-1.74,31.14-4.86,46.36-9.15,44.7-12.62,80.1-38.7,108.09-75.19,13.78-17.97,21.18-38.96,26.19-60.82.55-2.41,1.33-3.92,3.91-4.9,18.41-6.96,30.33-20.16,36.07-38.86,3.54-11.53,4.02-23.38,2.5-35.32ZM434.27,359c-14.25,26.81-36.21,45.38-62.99,58.88-19.44,9.8-40.11,15.5-61.36,19.39-21.48,3.93-43.15,5.05-64.91,3.46-33.96-2.47-66.89-9.15-97.12-25.62-19.5-10.62-36.86-24.07-49.62-42.48-9.62-13.89-17.17-28.94-20.22-45.85-1.87-10.38-2.28-20.9-2.33-31.42-.15-27.09-.59-54.18.03-81.26.34-15.04,2.03-30.05,7.81-44.05,7.82-18.93,21.33-33.34,38.27-44.57,15.95-10.57,33.77-15.22,52.72-15.36,10.41-.08,20.83-.11,31.24-.12,17.83,0,35.67.06,53.5.06v.14c27.9,0,55.8-.13,83.7.06,14.79.1,29.57.94,43.48,6.75,32.48,13.55,52.73,37.55,60.61,71.83,2.27,9.86,2.05,19.97,2.07,30.03.06,26.86-.28,53.73.36,80.57.51,21.44-5.35,40.96-15.24,59.56Z"/></svg>
