<?xml version="1.0" encoding="UTF-8"?><svg id="a" xmlns="http://www.w3.org/2000/svg" viewBox="0 0 636 173"><defs><style>.b{letter-spacing:-.02em;}.c{letter-spacing:.03em;}.d{fill:#041518;font-family:Inter-Black, Inter;font-size:120px;font-variation-settings:'opsz' 14, 'wght' 900;font-weight:800;}.e{fill:#153238;stroke-width:0px;}.f{letter-spacing:.04em;}</style></defs><text class="d" transform="translate(217 142.19)"><tspan class="c" x="0" y="0">KI</tspan><tspan class="f" x="132.04" y="0">V</tspan><tspan class="b" x="232.18" y="0">V</tspan><tspan class="c" x="325.12" y="0">O</tspan></text><path class="e" d="M183.05,91.12c-1.08-8.55-5.56-14.5-13.59-17.7-.74-.29-1.03-.75-1.14-1.43-.29-1.88-.77-3.71-1.35-5.5-5.66-17.38-22.32-32.13-43.4-32.03-3.16.02-6.32.02-9.46.02v-.02h-9.65l-5.46-4.76,15.11-9.06v-12.34l-22,14.24-16.63-13.51v12.42l9.93,7.67c1.77,1.37,3.34,2.51,4.69,3.41,1.03.69,2.05,1.32,3.05,1.87-9.45-.26-18.56-.07-27.66.09-3.47.06-6.93.45-10.32,1.3-6.79,1.68-12.78,4.92-18.08,9.44-8.07,6.88-13.31,15.52-15.62,25.87-.27,1.2-.72,1.85-1.86,2.35-5.75,2.5-9.91,6.62-11.9,12.62-1.97,5.94-1.93,11.99,0,17.93,1.83,5.61,5.36,9.87,10.87,12.13,1.98.81,2.74,1.86,3.21,3.93,3.05,13.41,10.43,24.16,21.26,32.4,13.02,9.91,28.08,14.55,44.26,15.77,6.48.49,12.96.31,19.43-.41,5.38-.6,10.65-1.66,15.86-3.13,15.29-4.32,27.4-13.24,36.97-25.72,4.71-6.14,7.24-13.32,8.95-20.8.19-.82.46-1.34,1.34-1.68,6.3-2.38,10.38-6.89,12.34-13.29,1.21-3.94,1.37-7.99.85-12.08ZM153.62,130.06c-4.87,9.18-12.38,15.53-21.54,20.15-6.65,3.35-13.72,5.3-20.99,6.63-7.35,1.34-14.76,1.72-22.2,1.18-11.62-.85-22.88-3.13-33.22-8.76-6.67-3.63-12.61-8.24-16.97-14.53-3.29-4.75-5.87-9.9-6.92-15.68-.64-3.56-.77-7.15-.79-10.75-.05-9.27-.21-18.53.01-27.8.11-5.14.69-10.27,2.67-15.06,2.67-6.48,7.29-11.41,13.09-15.25,5.45-3.61,11.55-5.2,18.03-5.25,3.56-.03,7.13-.04,10.69-.04,6.1,0,12.19.02,18.29.02v.05c9.55,0,19.09-.05,28.63.02,5.06.03,10.12.32,14.87,2.31,11.11,4.63,18.04,12.84,20.74,24.57.77,3.37.7,6.83.7,10.27.02,9.18-.09,18.37.12,27.55.18,7.34-1.82,14.01-5.21,20.37Z"/><path class="e" d="M93.77,44.92v.02h-18.29v-.04c6.1,0,12.19.02,18.29.02Z"/><path class="e" d="M68.25,93.58c0-5.76,0-11.52,0-17.28,0-.37-.01-.74.03-1.1.25-1.89.74-2.31,2.62-2.31,1.33,0,2.66,0,4,0,2.67,0,3.81,1.11,3.91,3.79.03.9.01,1.8.01,2.7,0,10.22.01,20.45.02,30.67,0,2.91-1.41,4.33-4.34,4.37-1.13.02-2.26,0-3.4,0-1.99-.02-2.82-.83-2.85-2.85-.03-2.43,0-4.86,0-7.29,0-3.56,0-7.13,0-10.69Z"/><path class="e" d="M121.07,93.73c0,5.79,0,11.59,0,17.38,0,.53.03,1.06-.14,1.58-.4,1.2-.94,1.61-2.19,1.62-1.4,0-2.8.02-4.2,0-2.46-.01-3.85-1.37-3.9-3.88-.04-2.13-.03-4.26-.03-6.39,0-9.09.01-18.18.02-27.27,0-2.66,1.17-3.85,3.81-3.88,1.27-.01,2.53-.01,3.8,0,1.9.03,2.79.93,2.79,2.85,0,5.99,0,11.99,0,17.98.01,0,.03,0,.04,0Z"/><path class="e" d="M124.03,93.74c0-6.56.01-13.12-.02-19.68,0-.77.17-1.03.97-.99,1.56.06,3.13.08,4.69,0,2.63-.15,4.06,1.98,4.14,4.13.03.66,0,1.33,0,2,0,9.89,0,19.78,0,29.66,0,.43.01.87-.02,1.3-.2,2.63-1.5,4.02-4.11,4.22-1.69.13-3.39.04-5.09.1-.85.03-.57-.57-.57-.96-.01-6.59,0-13.18-.01-19.78Z"/><path class="e" d="M65.37,93.75c0,6.53-.03,13.06.03,19.59,0,1.01-.3,1.23-1.22,1.16-1.75-.14-3.53.18-5.27-.19-1.75-.38-2.8-1.58-3.07-3.35-.13-.89-.18-1.79-.18-2.69,0-9.86,0-19.72,0-29.58,0-.43,0-.87.01-1.3.13-2.83,1.58-4.26,4.39-4.3,1.53-.02,3.07.04,4.6,0,.67-.02.73.22.72.79-.02,6.63-.01,13.26-.01,19.89h.01Z"/><path class="e" d="M93.81,143.05c-6.96-.29-14.07-2.13-20.38-6.55-1.06-.75-2.26-1.31-3.19-2.25-1.36-1.37-1.67-3.12-.79-4.51.9-1.43,2.51-1.88,4.4-1.27,1.03.33,1.91.94,2.78,1.55,5.16,3.61,10.89,5.32,17.19,5.48,6.32.17,12.22-1.07,17.66-4.35.95-.57,1.85-1.22,2.78-1.81.98-.62,2.03-.94,3.21-1.06,2.01-.19,3.84,1.61,2.95,4.16-.43,1.22-1.15,2.23-2.27,2.95-5.3,3.42-10.83,6.31-17.2,7.13-2.15.28-4.32.51-7.13.53Z"/><path class="e" d="M96.77,96.93c-6.74.12-11.44.17-16.13.3-.88.02-1.04-.24-1.02-1.05.05-2,.03-4,0-5.99,0-.56.06-.82.73-.82,9.52-.09,19.04.05,28.57.21.76.01.94.25.92.98-.05,1.93-.03,3.86,0,5.79,0,.58-.17.71-.74.68-4.79-.22-9.59-.07-12.33-.1Z"/><path class="e" d="M53.47,93.45c-.08,2.85-.49,5.71-.68,8.6-.04.55-.2.71-.81.48-3.77-1.37-6.13-4.78-6.19-8.77-.07-4.4,3.47-7.58,6.26-8.68.59-.23.69.02.73.47.24,2.61.62,5.22.69,7.89Z"/><path class="e" d="M136.8,103.1c-.19-2.06-.35-4.08-.58-6.09-.42-3.71.24-7.36.42-11.04.04-.77.33-.7.84-.49,3.49,1.46,5.76,3.96,6.1,7.8.34,3.85-1.36,6.8-4.61,8.86-.64.4-1.31.75-2.17.95Z"/></svg>